<svg
  viewBox="0 0 400 260"
  xmlns="http://www.w3.org/2000/svg"
  preserveAspectRatio="xMidYMid slice"
>
  <defs>
    <linearGradient id="tourSky2" x1="0" y1="0" x2="0" y2="1">
      <stop offset="0%" stop-color="#9ab5cc" />
      <stop offset="100%" stop-color="#d8e4ee" />
    </linearGradient>
  </defs>
  <rect width="400" height="260" fill="url(#tourSky2)" />
  <g fill="#fbfaf5" opacity="0.55">
    <ellipse cx="80" cy="60" rx="40" ry="6" />
    <ellipse cx="300" cy="40" rx="50" ry="5" />
  </g>
  <path
    d="M0 160 L60 80 L120 130 L180 60 L240 120 L300 70 L360 130 L400 100 L400 200 L0 200 Z"
    fill="#6a8aa5"
  />
  <path d="M160 80 L180 60 L200 85 L180 100 Z" fill="#fbfaf5" />
  <path d="M280 90 L300 70 L320 95 L300 108 Z" fill="#fbfaf5" />
  <path d="M40 100 L60 80 L80 105 L60 115 Z" fill="#fbfaf5" />
  <path
    d="M0 200 L80 150 L160 190 L240 140 L320 180 L400 150 L400 260 L0 260 Z"
    fill="#3a5a4a"
  />
  <g fill="#1f4a36">
    <polygon points="60,180 68,164 76,180" />
    <polygon points="140,195 148,178 156,195" />
    <polygon points="260,170 268,152 276,170" />
    <polygon points="340,185 348,168 356,185" />
  </g>
</svg>
